/vscmnt/brussel_pixiu_data/_data_brussel/112/vsc11236/PredSimResults/SUBJ09opt3D/SUBJ09opt3D_12158386.mot
version=1
nRows=11
nColumns=50
inDegrees=yes
endheader
                time	         pelvis_tilt	         pelvis_list	     pelvis_rotation	           pelvis_tx	           pelvis_ty	           pelvis_tz	       hip_flexion_r	     hip_adduction_r	      hip_rotation_r	        knee_angle_r	       ankle_angle_r	         mtp_angle_r	       hip_flexion_l	     hip_adduction_l	      hip_rotation_l	        knee_angle_l	       ankle_angle_l	         mtp_angle_l	    lumbar_extension	      lumbar_bending	     lumbar_rotation	 ercspn_r/activation	 intobl_r/activation	 extobl_r/activation	    abd_r/activation	    add_r/activation	hamstrings_r/activation	bifemsh_r/activation	glut_max_r/activation	iliopsoas_r/activation	rect_fem_r/activation	  vasti_r/activation	gastroc_r/activation	 soleus_r/activation	tib_ant_r/activation	 ercspn_l/activation	 intobl_l/activation	 extobl_l/activation	    abd_l/activation	    add_l/activation	hamstrings_l/activation	bifemsh_l/activation	glut_max_l/activation	iliopsoas_l/activation	rect_fem_l/activation	  vasti_l/activation	gastroc_l/activation	 soleus_l/activation	tib_ant_l/activation	
          0.62842191	         -4.23462666	          0.84130371	         -8.25717673	          0.77924316	          0.98859958	          0.00319276	        -14.37939611	         -2.42008260	         -4.65233627	         -9.70757354	          3.63069202	         36.87774570	         29.04447885	         -1.81073753	         -8.84033535	         -6.37898198	          4.29012672	          0.24606176	        -13.54866935	          1.23118647	          6.80346635	          0.03238763	          0.00999999	          0.00999999	          0.02646851	          0.01209473	          0.01466007	          0.17582440	          0.01121115	          0.01209475	          0.00999999	          0.00999999	          0.30961805	          0.21395111	          0.01249667	          0.02899529	          0.15653943	          0.03052693	          0.00999999	          0.21918952	          0.06805337	          0.13643116	          0.08961275	          0.13445217	          0.01112745	          0.00999999	          0.01462826	          0.00999999	          0.32530781	
          0.64099034	         -4.26186774	          0.97144430	         -8.26392537	          0.79938252	          0.98637165	          0.00249293	        -15.04713658	         -2.77830336	         -5.07480033	        -10.42152120	          2.45433118	         38.46805135	         28.98968666	         -1.64349822	         -8.99213445	         -8.25598975	          3.88292631	          0.20890505	        -13.03533246	          0.77445477	          7.01024098	          0.02677828	          0.00999999	          0.00999999	          0.02188432	          0.00999999	          0.01212942	          0.14537262	          0.00999999	          0.01000001	          0.00999999	          0.00999999	          0.28117271	          0.19152888	          0.01033232	          0.02397348	          0.12942770	          0.02523984	          0.07303723	          0.18470336	          0.06755426	          0.11280207	          0.12982267	          0.11116582	          0.00999999	          0.00999999	          0.01209473	          0.01209473	          0.36448542	
          0.65355878	         -4.27131001	          1.11081832	         -8.23705681	          0.81976335	          0.98447572	          0.00171070	        -15.51202085	         -3.16652693	         -5.51852217	        -11.53334727	          1.16029258	         39.98355735	         28.84214869	         -1.46110723	         -9.13286084	        -10.01153098	          3.33531542	          0.20164509	        -12.51109384	          0.30731433	          7.18572449	          0.03512046	          0.00999999	          0.00999999	          0.01809408	          0.00999999	          0.01002867	          0.12019492	          0.00999999	          0.03203096	          0.00999999	          0.00999999	          0.23281594	          0.15994207	          0.00999999	          0.02331539	          0.10701156	          0.02086844	          0.12785541	          0.20580327	          0.05585425	          0.09326539	          0.16961281	          0.09191254	          0.00999999	          0.00999999	          0.00999999	          0.00999999	          0.40874172	
          0.66612722	         -4.26408282	          1.24908374	         -8.17718401	          0.84004280	          0.98310914	          0.00083224	        -15.66324643	         -3.58334957	         -5.97459673	        -13.20743207	         -0.20207302	         41.25866202	         28.75091396	         -1.27769478	         -9.26880169	        -11.87886990	          2.79372116	          0.16758996	        -12.01735098	         -0.15867034	          7.32789637	          0.08848118	          0.00999999	          0.00999999	          0.01496029	          0.03945523	          0.01821993	          0.09937784	          0.00999999	          0.02648339	          0.00999999	          0.00999999	          0.19249355	          0.13224102	          0.00999999	          0.03489916	          0.08847777	          0.01725415	          0.17601041	          0.25411168	          0.05217846	          0.07711236	          0.17352088	          0.07599381	          0.00999999	          0.07328170	          0.00999999	          0.00999999	          0.42960935	
          0.67869566	         -4.24211025	          1.38501782	         -8.09188978	          0.86002847	          0.98240148	         -0.00012699	        -15.42392710	         -4.03630903	         -6.45341021	        -15.54940749	         -1.60135265	         42.09012059	         28.71574341	         -1.09156491	         -9.36606381	        -13.89618982	          2.57777358	          0.12812848	        -11.57096933	         -0.62201229	          7.43986718	          0.10075255	          0.00999999	          0.00999999	          0.01236925	          0.12226146	          0.02336721	          0.08216617	          0.00999999	          0.03566513	          0.00999999	          0.00999999	          0.15915477	          0.10933763	          0.00999999	          0.02885483	          0.07315393	          0.01426583	          0.20113931	          0.27375602	          0.04816189	          0.06375694	          0.18778509	          0.06283212	          0.00999999	          0.17155553	          0.00999999	          0.00999999	          0.43063693	
          0.69126410	         -4.20914981	          1.50503521	         -7.97954854	          0.87957022	          0.98248298	         -0.00113441	        -14.73324220	         -4.52041582	         -7.00334236	        -18.64973482	         -2.94223588	         42.07683134	         28.63290684	         -0.89975900	         -9.42202754	        -15.86070097	          2.70546364	          0.09389227	        -11.18604630	         -1.06938703	          7.51790816	          0.09886016	          0.00999999	          0.00999999	          0.01022697	          0.17396562	          0.02205288	          0.06793546	          0.00999999	          0.02948814	          0.00999999	          0.00999999	          0.13159007	          0.09040098	          0.00999999	          0.02385734	          0.06048409	          0.01179507	          0.20828353	          0.30068818	          0.04953459	          0.05271460	          0.18947712	          0.05194996	          0.00999999	          0.20588995	          0.00999999	          0.00999999	          0.40329612	
          0.70383253	         -4.16780832	          1.59361016	         -7.83684364	          0.89861510	          0.98336084	         -0.00215689	        -13.58324838	         -5.03677798	         -7.63245590	        -22.48351445	         -4.34321976	         41.16278504	         28.42571521	         -0.70899962	         -9.44651583	        -17.62436529	          3.14497244	          0.08063474	        -10.86642376	         -1.48561714	          7.55659502	          0.08980795	          0.00999999	          0.00999999	          0.00999999	          0.21830459	          0.03326022	          0.05903329	          0.00999999	          0.02438096	          0.00999999	          0.00999999	          0.10879943	          0.07474405	          0.00999999	          0.01972539	          0.05000859	          0.00999999	          0.20787392	          0.28811336	          0.05542845	          0.04358474	          0.18079352	          0.04295252	          0.00999999	          0.24454975	          0.00999999	          0.00999999	          0.35254202	
          0.71640097	         -4.12001611	          1.63427699	         -7.66018747	          0.91714432	          0.98497274	         -0.00315630	        -12.01295317	         -5.58178303	         -8.32965168	        -26.92384275	         -5.90520612	         39.26055643	         28.02829890	         -0.52534419	         -9.42234629	        -19.04923214	          3.80500709	          0.13403852	        -10.61249374	         -1.85547857	          7.55005045	          0.07425373	          0.01492585	          0.00999999	          0.00999999	          0.26085643	          0.03015282	          0.04880907	          0.00999999	          0.02015832	          0.00999999	          0.00999999	          0.08995599	          0.06179881	          0.04498595	          0.01630907	          0.04134739	          0.00999999	          0.21268543	          0.27588517	          0.05950886	          0.03603611	          0.17522911	          0.03551339	          0.00999999	          0.26701569	          0.00999999	          0.00999999	          0.29941487	
          0.72896941	         -4.06763793	          1.61724601	         -7.44918375	          0.93511208	          0.98719939	         -0.00409684	        -10.09104909	         -6.14494092	         -9.01570660	        -31.82653691	         -7.43312527	         36.00800685	         27.41757844	         -0.35534051	         -9.33079779	        -20.06064998	          4.52316673	          0.29586089	        -10.42763789	         -2.17001197	          7.49306368	          0.09595712	          0.05037961	          0.05943369	          0.00999999	          0.21567759	          0.02493053	          0.04035562	          0.00999999	          0.01666701	          0.00999999	          0.00999999	          0.07437613	          0.05109561	          0.13308075	          0.01348443	          0.03418626	          0.00999999	          0.19547293	          0.22810344	          0.05799426	          0.02979486	          0.14488044	          0.02936267	          0.00999999	          0.28138747	          0.00999999	          0.00999999	          0.25000606	
          0.74153785	         -4.01086904	          1.54941880	         -7.20265263	          0.95244986	          0.98986161	         -0.00498487	         -7.92611507	         -6.68192233	         -9.53272529	        -36.96124483	         -8.66323141	         31.37160647	         26.63716422	         -0.20021447	         -9.17379657	        -20.71447689	          5.23203950	          0.58861891	        -10.32083385	         -2.42873634	          7.37931536	          0.12178820	          0.07081462	          0.11323641	          0.01462826	          0.17832347	          0.02061270	          0.03906132	          0.01000002	          0.01378038	          0.00999999	          0.00999999	          0.06149461	          0.04224614	          0.20338280	          0.01114900	          0.02826539	          0.00999999	          0.16161814	          0.19323199	          0.05372287	          0.02463456	          0.11978798	          0.02427723	          0.00999999	          0.28419964	          0.00999999	          0.00999999	          0.20670645	
          0.75410629	         -3.94965095	          1.45800569	         -6.91472586	          0.96914214	          0.99279051	         -0.00578584	         -5.64941498	         -7.08697619	         -9.76415869	        -42.01811145	         -8.75903858	         26.69360063	         25.73985220	         -0.04687939	         -8.96980914	        -21.08839254	          5.88015854	          0.99776094	        -10.29216410	         -2.65930608	          7.19949004	          0.12291927	          0.07106257	          0.12776837	          0.01209473	          0.14743886	          0.01704270	          0.04303598	          0.00999999	          0.01139371	          0.00999999	          0.00999999	          0.05084409	          0.03492935	          0.20745397	          0.00999999	          0.02336999	          0.00999999	          0.13696342	          0.16787295	          0.05363594	          0.02036800	          0.09904141	          0.02007255	          0.00999999	          0.26745485	          0.00999999	          0.00999999	          0.17090607	
